<svg xmlns="http://www.w3.org/2000/svg" viewBox="0 0 471.71 120.58"><defs><style>.cls-1{fill:#1a194d;}.cls-2{fill:#2859fa;}.cls-3{fill:#2859fa;}.cls-4,.cls-5{fill:none;stroke:#fff;stroke-miterlimit:10;stroke-width:2px;}.cls-5{stroke-dasharray:7.92 7.92;}</style></defs><g id="Layer_2" data-name="Layer 2"><g id="Layer_1-2" data-name="Layer 1"><path class="cls-1" d="M272.21,35.45c-.34-6.64-13.44-14.79-18.56-35.45a48,48,0,0,0,21.84,0c-.76,6.05,1.68,13.61,5.46,19.4,3.78-5.79,6.13-13.35,5.37-19.4a48,48,0,0,0,21.84,0C303,20.83,289.77,29.15,289.52,35.7c-.34,8.32.75,13.86,1.84,22.26a44.38,44.38,0,0,0-21,0C271.45,49.56,272.63,43.85,272.21,35.45Z"/><path class="cls-1" d="M317,27c12.27,0,15.29,9.41,15.29,15.88,0,6.64-4.62,16-15.29,16-11,0-17.38-7.14-17.38-16S306,27,317,27Zm-11.76,0c1.68-5.71,1.43-9.49-.25-15.2,6.3,0,14.53-.84,21.42-.84,25,0,15.12,26.63,19.32,47a44.38,44.38,0,0,0-21,0c1.18-9.49,5.71-36-9-36A13.38,13.38,0,0,0,305.22,27ZM321.94,48.8c2.35,0,4.28-2.68,4.28-6S324.29,37,321.94,37s-4.45,2.69-4.45,5.88S319.5,48.8,321.94,48.8Z"/><path class="cls-1" d="M375,11.76a23.39,23.39,0,0,0,0,11.34,122.67,122.67,0,0,0-31.34,0,23.39,23.39,0,0,0,0-11.34A122.67,122.67,0,0,0,375,11.76ZM368,26.12c0,6.14.42,21.59,10.5,21.59,0,4.87-3.44,11.09-13.69,11.09-19.66,0-14.11-20.24-14.11-32.76a243,243,0,0,0-1.85-26,44.38,44.38,0,0,0,21,0A242.86,242.86,0,0,0,368,26.12Z"/><path class="cls-1" d="M378.3,11.76a44.38,44.38,0,0,0,21,0c-2.43,21.84-2.43,24.36,0,46.2a44.38,44.38,0,0,0-21,0C380.74,36.2,380.74,33.52,378.3,11.76Zm28.56,18.48c0-4.87-1.59-7.39-3.86-7.39-3.19,0-5.55,4.37-5.55,12l-6.46.08c0-15.54,8.9-24,19.65-24,12.52,0,13.53,11.51,13.53,19.32A30.36,30.36,0,0,0,406.86,30.24Z"/><path class="cls-1" d="M471.71,11.76c-1.26,10.84-1.85,17-1.85,23,0,16.12-5.29,24-22,24s-22-7.9-22-24c0-6.05-.58-12.18-1.84-23a44.38,44.38,0,0,0,21,0c-1.26,10.84-1.85,17-1.85,23.1,0,2.52.84,13.36,4.7,13.36,4,0,4.71-10.76,4.71-13.36,0-6.13-.59-12.26-1.85-23.1A44.38,44.38,0,0,0,471.71,11.76Z"/><path class="cls-1" d="M276.41,76.21c0,7.23,20.41,12.1,20.41,25.12,0,10.75-9.91,17.47-26,17.47-7.89,0-9.91-1-17.13-1,1.93-7.05,2.26-10.25.33-17.3,2.61,4.28,7.9,6.21,12.18,6.21,4.71,0,7.4-2.1,7.4-4.62,0-7.64-18.82-11.34-18.82-25.2,0-10.92,8.23-18,24.11-18,7.89,0,9.91,1.09,17.13,1.09-1.93,7-2.18,10.16-.33,17.22A13.55,13.55,0,0,0,283.89,71C279.35,71,276.41,72.77,276.41,76.21Z"/><path class="cls-1" d="M326.56,103.34a10.21,10.21,0,0,0,9.83-6.8c8.4,0,6.55,22.26-16.38,22.26-15.21,0-23.36-10.75-23.36-23.94s8.74-23.94,24.28-23.94c24.19,0,24.78,29.82-7.22,29.82-4.29,0-7.23-8.4,2.35-8.4,11.51,0,15.12-10.92,9.32-10.92C315.47,81.42,312.45,103.51,326.56,103.34Z"/><path class="cls-1" d="M336.13,71.76a48,48,0,0,0,21.84,0c.34,14.95,1.52,22.68,5.63,33.43,4.12-10.75,5.21-18.48,5.55-33.43,7.3,1.68,9.15,1.68,16.79,0,.34,14.95,1.52,22.68,5.63,33.43,4.12-10.75,5.21-18.48,5.55-33.43a48,48,0,0,0,21.84,0C412.32,91.08,407.7,96,404.51,118a59.11,59.11,0,0,0-24.28,0c-.84-5.46-1.68-9.91-2.68-13.78A138.53,138.53,0,0,0,374.86,118a59.11,59.11,0,0,0-24.28,0C347.39,96,342.77,91.08,336.13,71.76Z"/><path class="cls-1" d="M432.15,87c12.26,0,15.28,9.41,15.28,15.88,0,6.64-4.62,16-15.28,16-11,0-17.39-7.14-17.39-16S421.14,87,432.15,87Zm-11.76,0c1.68-5.71,1.42-9.49-.26-15.2,6.3,0,14.54-.84,21.42-.84,25,0,15.12,26.63,19.32,47a44.38,44.38,0,0,0-21,0c1.18-9.49,5.72-36-9-36A13.35,13.35,0,0,0,420.39,87ZM437.1,108.8c2.35,0,4.29-2.68,4.29-6S439.45,97,437.1,97s-4.45,2.69-4.45,5.88S434.67,108.8,437.1,108.8Z"/><path class="cls-2" d="M226.89,45.43V12.58h-174A52.85,52.85,0,0,0,0,65.43v55.15H34.41a20.41,20.41,0,0,1-.1-2.08,21.15,21.15,0,1,1,42.3,0,20.39,20.39,0,0,1-.11,2.08H226.89V87.73a21.15,21.15,0,1,1,0-42.3Z"/><line class="cls-3" x1="175.49" y1="25.59" x2="175.49" y2="104.84"/><line class="cls-4" x1="175.49" y1="25.59" x2="175.49" y2="29.59"/><line class="cls-5" x1="175.49" y1="37.5" x2="175.49" y2="96.88"/><line class="cls-4" x1="175.49" y1="100.84" x2="175.49" y2="104.84"/></g></g></svg>